<svg width="316" height="611" viewBox="0 0 316 611" fill="none" xmlns="http://www.w3.org/2000/svg">
<g opacity="0.4">
<path fill-rule="evenodd" clip-rule="evenodd" d="M71.2275 548.862C74.2918 541.431 76.8719 533.626 82.2145 527.448C82.5313 527.079 82.4898 526.523 82.1179 526.203C81.7449 525.886 81.1859 525.924 80.8658 526.292C75.3991 532.615 72.7188 540.582 69.5843 548.186C69.3967 548.634 69.6162 549.153 70.0702 549.338C70.5228 549.527 71.0399 549.311 71.2275 548.862Z" fill="white"/>
<path fill-rule="evenodd" clip-rule="evenodd" d="M59.9842 545.316C58.7127 542.145 58.0675 538.968 58.447 535.574C58.5015 535.09 58.1498 534.653 57.6637 534.594C57.1764 534.539 56.737 534.887 56.6837 535.369C56.2707 539.059 56.955 542.511 58.3363 545.959C58.5172 546.413 59.0334 546.638 59.4892 546.458C59.9433 546.282 60.1664 545.768 59.9842 545.316Z" fill="white"/>
<path fill-rule="evenodd" clip-rule="evenodd" d="M33.7958 542.719C30.5012 540.223 28.4128 536.998 27.5621 532.958C27.4615 532.481 26.991 532.172 26.5112 532.271C26.0326 532.366 25.7247 532.833 25.8252 533.309C26.7678 537.781 29.0769 541.355 32.7247 544.119C33.1146 544.416 33.6729 544.34 33.9677 543.955C34.2641 543.567 34.187 543.013 33.7958 542.719Z" fill="white"/>
<path fill-rule="evenodd" clip-rule="evenodd" d="M14.5712 577.732C15.0833 578.661 15.6794 579.547 16.3611 580.367C16.6645 580.733 17.3398 581.43 18.0219 581.76C18.7475 582.114 19.4783 582.105 20.0621 581.582C20.8369 580.887 21.0561 580.179 20.9931 579.543C20.9331 578.931 20.5821 578.336 20.0021 577.823C18.8933 576.842 16.887 576.154 15.6607 575.973C15.2138 575.021 14.8581 574.027 14.594 573.009C12.6269 565.422 17.5498 557.294 26.4912 553.019C29.6214 551.524 34.7327 552.189 40.0047 553.539C48.2137 555.64 56.7877 559.534 59.3307 560.594C59.9592 560.855 60.3588 560.94 60.4467 560.936C60.8762 560.924 61.0773 560.688 61.187 560.511C61.3429 560.254 61.3745 560.014 61.3498 559.8C61.3147 559.511 61.1663 559.228 60.8557 559.003C60.6836 558.88 60.4227 558.765 60.1366 558.662C59.9374 558.593 59.7073 558.55 59.5815 558.457C58.7772 557.853 58.0143 557.206 57.2427 556.562C54.6457 554.406 52.3503 552.025 50.1137 549.502C43.0067 541.484 35.339 533.425 31.4778 523.273C31.3045 522.818 30.7924 522.583 30.3339 522.754C29.8766 522.922 29.6458 523.429 29.8182 523.888C33.755 534.243 41.5374 542.486 48.7849 550.663C50.6876 552.809 52.6327 554.855 54.7607 556.752C50.3939 554.965 44.2848 552.659 38.5847 551.386C33.5154 550.254 28.7572 549.977 25.7143 551.43C15.9192 556.113 10.7199 565.131 12.8759 573.439C13.1069 574.328 13.4003 575.203 13.7578 576.05C6.23701 577.074 0.942973 583.418 1.43469 591.011C1.46555 591.498 1.88828 591.868 2.37655 591.841C2.86609 591.81 3.23682 591.394 3.20596 590.907C2.76301 584.064 7.68489 578.389 14.5712 577.732ZM16.8337 578.054C17.1108 578.467 17.4094 578.864 17.7276 579.251C17.8991 579.456 18.2378 579.828 18.6143 580.074C18.7029 580.131 18.8523 580.192 18.9219 580.219C19.1219 580.035 19.2445 579.879 19.2268 579.706C19.206 579.49 19.0291 579.317 18.8261 579.137C18.317 578.685 17.556 578.309 16.8337 578.054Z" fill="white"/>
<path fill-rule="evenodd" clip-rule="evenodd" d="M262.798 521.658C268.614 527.206 274.955 532.438 278.779 539.656C279.008 540.085 279.541 540.247 279.974 540.017C280.404 539.784 280.571 539.249 280.345 538.818C276.431 531.432 269.976 526.048 264.024 520.372C263.674 520.034 263.111 520.051 262.773 520.407C262.433 520.761 262.448 521.321 262.798 521.658Z" fill="white"/>
<path fill-rule="evenodd" clip-rule="evenodd" d="M270.175 512.463C273.592 512.427 276.787 512.976 279.813 514.559C280.245 514.785 280.78 514.616 281.01 514.184C281.238 513.75 281.073 513.214 280.643 512.99C277.353 511.268 273.888 510.656 270.173 510.694C269.684 510.698 269.288 511.098 269.29 511.588C269.29 512.075 269.689 512.469 270.175 512.463Z" fill="white"/>
<path fill-rule="evenodd" clip-rule="evenodd" d="M282.082 488.994C285.602 486.827 289.365 486.048 293.439 486.719C293.919 486.798 294.378 486.471 294.46 485.988C294.544 485.508 294.221 485.052 293.74 484.973C289.231 484.231 285.063 485.089 281.165 487.488C280.747 487.744 280.616 488.292 280.868 488.706C281.122 489.123 281.667 489.252 282.082 488.994Z" fill="white"/>
<path fill-rule="evenodd" clip-rule="evenodd" d="M256.41 458.392C255.359 458.533 254.317 458.768 253.306 459.106C252.855 459.256 251.961 459.633 251.406 460.15C250.813 460.698 250.557 461.382 250.833 462.116C251.2 463.09 251.781 463.551 252.396 463.722C252.988 463.888 253.67 463.776 254.359 463.422C255.675 462.743 257.042 461.122 257.655 460.045C258.705 459.973 259.76 460.002 260.805 460.124C268.588 461.039 274.382 468.572 275.127 478.454C275.387 481.914 272.916 486.437 269.748 490.862C264.816 497.752 258.081 504.333 256.172 506.32C255.701 506.811 255.477 507.153 255.449 507.236C255.305 507.641 255.452 507.914 255.577 508.08C255.76 508.319 255.973 508.435 256.18 508.489C256.463 508.561 256.781 508.526 257.103 508.318C257.279 508.202 257.481 508 257.681 507.771C257.817 507.61 257.941 507.411 258.073 507.328C258.927 506.797 259.807 506.32 260.687 505.834C263.637 504.195 266.687 502.917 269.849 501.747C279.897 498.026 290.186 493.799 301.048 493.877C301.535 493.88 301.939 493.488 301.945 492.998C301.955 492.511 301.565 492.113 301.075 492.107C289.998 492.026 279.495 496.294 269.248 500.087C266.559 501.083 263.947 502.156 261.409 503.452C264.656 500.029 269.018 495.17 272.269 490.318C275.161 486.003 277.143 481.668 276.89 478.306C276.073 467.48 269.551 459.367 261.026 458.367C260.114 458.26 259.192 458.217 258.273 458.243C260.043 450.862 256.047 443.63 248.791 441.338C248.326 441.19 247.828 441.45 247.677 441.915C247.528 442.383 247.782 442.879 248.247 443.027C254.785 445.092 258.293 451.736 256.41 458.392ZM255.29 460.384C254.806 460.493 254.327 460.628 253.852 460.784C253.598 460.87 253.129 461.051 252.763 461.312C252.678 461.374 252.567 461.491 252.516 461.547C252.615 461.8 252.717 461.971 252.884 462.017C253.093 462.075 253.319 461.973 253.56 461.849C254.166 461.539 254.791 460.965 255.29 460.384Z" fill="white"/>
<path fill-rule="evenodd" clip-rule="evenodd" d="M58.6053 225.161C50.1594 240.866 33.2879 247.251 17.6179 238.41C17.0962 238.115 16.4347 238.3 16.1403 238.815C15.8459 239.339 16.0299 240.002 16.5516 240.296C33.3477 249.782 51.4622 243.019 60.5153 226.192C60.7987 225.667 60.6009 225.005 60.0737 224.72C59.5465 224.444 58.8887 224.637 58.6053 225.161Z" fill="white"/>
<path d="M30.8048 231.674C32.5495 231.674 33.9638 230.26 33.9638 228.515C33.9638 226.771 32.5495 225.356 30.8048 225.356C29.0602 225.356 27.6459 226.771 27.6459 228.515C27.6459 230.26 29.0602 231.674 30.8048 231.674Z" fill="white"/>
<path d="M43.882 228.314C45.5925 228.314 46.9792 226.927 46.9792 225.217C46.9792 223.506 45.5925 222.12 43.882 222.12C42.1714 222.12 40.7848 223.506 40.7848 225.217C40.7848 226.927 42.1714 228.314 43.882 228.314Z" fill="white"/>
</g>
<path fill-rule="evenodd" clip-rule="evenodd" d="M119.716 114.6C113.959 116.227 107.312 117.846 100.918 118.25C95.4525 118.595 90.1736 118.059 85.8527 115.779C85.2436 115.458 84.4809 115.679 84.1515 116.273C83.8216 116.866 84.0485 117.61 84.6576 117.931C89.3711 120.418 95.1185 121.068 101.08 120.691C107.589 120.28 114.356 118.651 120.228 117C120.91 118.346 122.321 119.6 124.806 120.525C128.624 121.947 133.837 121.929 139.328 121.128C147.292 119.967 155.86 117.198 161.368 115.23C161.594 115.15 161.93 115.022 162.342 114.854C162.468 115.124 162.608 115.39 162.764 115.651C164.115 117.929 166.505 119.77 168.94 120.428C184.386 124.598 202.412 119.601 217.09 115.535C217.753 115.35 218.139 114.673 217.953 114.024C217.763 113.374 217.07 112.997 216.402 113.181C202.136 117.135 184.622 122.122 169.608 118.07C167.76 117.571 165.963 116.155 164.938 114.427C164.823 114.234 164.722 114.037 164.627 113.837C166.65 112.859 169.031 111.497 170.311 110.039C171.627 108.544 171.953 106.948 170.808 105.441C169.824 104.152 168.333 104.043 166.781 104.711C165.109 105.426 163.387 107.099 162.829 107.884C161.785 109.35 161.453 110.94 161.644 112.491C161.152 112.694 160.752 112.844 160.506 112.932C155.118 114.857 146.744 117.573 138.956 118.708C133.946 119.439 129.186 119.537 125.702 118.24C124.216 117.687 123.234 117.041 122.702 116.291C123.753 115.985 124.767 115.683 125.736 115.395C127.651 114.826 131.64 113.884 134.489 112.205C136.755 110.87 138.292 109.054 138.203 106.778C138.157 105.608 137.462 104.828 136.357 104.39C134.706 103.737 131.85 104.053 130.786 104.273C127.56 104.94 123.255 107.699 121.125 110.808C120.275 112.048 119.769 113.346 119.716 114.6ZM122.365 113.836C123.277 113.569 124.157 113.306 125.004 113.055C126.792 112.523 130.529 111.679 133.19 110.111C134.599 109.281 135.75 108.287 135.694 106.871C135.689 106.761 135.577 106.73 135.479 106.685C135.325 106.616 135.15 106.568 134.963 106.531C133.699 106.28 132.002 106.523 131.307 106.667C128.6 107.226 125 109.558 123.213 112.167C122.835 112.718 122.535 113.279 122.365 113.836ZM164.125 111.364C165.305 110.773 166.54 110.057 167.514 109.279C168.031 108.865 168.468 108.44 168.744 107.999C168.975 107.634 169.066 107.26 168.79 106.899C168.679 106.752 168.513 106.749 168.343 106.777C168.162 106.806 167.976 106.869 167.79 106.949C166.565 107.475 165.3 108.703 164.893 109.279C164.416 109.947 164.18 110.653 164.125 111.364Z" fill="#ECECEC"/>
<path fill-rule="evenodd" clip-rule="evenodd" d="M39.0338 27.9959C36.4557 27.2621 33.7565 26.892 31.1381 26.5529C30.5742 26.4818 30.0506 26.8785 30.0103 27.4374C29.9297 27.9967 30.3328 28.5082 30.8565 28.5792C33.3943 28.9057 36.0124 29.255 38.4697 29.9613C38.9934 30.1145 39.5576 29.7991 39.7187 29.2566C39.8798 28.7145 39.5575 28.1495 39.0338 27.9959Z" fill="white"/>
<path fill-rule="evenodd" clip-rule="evenodd" d="M46.8484 17.5934C42.6992 13.2993 38.0264 9.55797 33.9578 5.14867C33.5953 4.73687 32.9507 4.71481 32.5479 5.09924C32.1451 5.48408 32.105 6.13119 32.5078 6.54299C36.5764 10.965 41.2492 14.7186 45.3983 19.0253C45.8012 19.4273 46.4455 19.433 46.8484 19.0376C47.2109 18.6425 47.2512 17.9954 46.8484 17.5934Z" fill="white"/>
<path fill-rule="evenodd" clip-rule="evenodd" d="M54.6235 1.0768C54.7444 3.53453 54.865 5.99226 54.9858 8.45041C54.9858 9.01336 55.4695 9.44804 56.0334 9.42067C56.5974 9.39289 57 8.91368 57 8.35032C56.8791 5.8885 56.7585 3.42708 56.6377 0.965673C56.5974 0.402714 56.1139 -0.0291052 55.5499 0.00153479C55.0263 0.0321748 54.5832 0.514245 54.6235 1.0768Z" fill="white"/>
</svg>
